<?xml version="1.0" standalone="no"?>
<!DOCTYPE svg PUBLIC "-//W3C//DTD SVG 20010904//EN"
 "http://www.w3.org/TR/2001/REC-SVG-20010904/DTD/svg10.dtd">
<svg version="1.0" xmlns="http://www.w3.org/2000/svg"
 width="60.000000pt" height="60.000000pt" viewBox="0 0 60.000000 60.000000"
 preserveAspectRatio="xMidYMid meet">

<g transform="translate(0.000000,60.000000) scale(0.100000,-0.100000)"
fill="#000000" stroke="none">
<path d="M347 472 c-26 -26 -47 -54 -47 -63 0 -19 91 -109 111 -109 19 0 109
91 109 111 0 19 -91 109 -111 109 -8 0 -36 -22 -62 -48z"/>
<path d="M92 468 c-16 -16 -16 -140 0 -156 7 -7 40 -12 78 -12 38 0 71 5 78
12 16 16 16 140 0 156 -7 7 -40 12 -78 12 -38 0 -71 -5 -78 -12z"/>
<path d="M92 248 c-16 -16 -16 -140 0 -156 16 -16 140 -16 156 0 16 16 16 140
0 156 -16 16 -140 16 -156 0z"/>
<path d="M312 248 c-16 -16 -16 -140 0 -156 7 -7 40 -12 78 -12 38 0 71 5 78
12 16 16 16 140 0 156 -16 16 -140 16 -156 0z"/>
</g>
</svg>
