<?xml version="1.0" standalone="no"?>
<!DOCTYPE svg PUBLIC "-//W3C//DTD SVG 20010904//EN"
 "http://www.w3.org/TR/2001/REC-SVG-20010904/DTD/svg10.dtd">
<svg version="1.0" xmlns="http://www.w3.org/2000/svg"
 width="80.000000pt" height="80.000000pt" viewBox="0 0 80.000000 80.000000"
 preserveAspectRatio="xMidYMid meet">

<g transform="translate(0.000000,80.000000) scale(0.100000,-0.100000)"
fill="#000000" stroke="none">
<path d="M335 726 c-34 -15 -95 -79 -95 -101 0 -7 -10 -17 -22 -20 -28 -9 -78
-54 -78 -71 0 -7 -13 -15 -30 -19 -92 -20 -139 -129 -87 -206 30 -45 80 -69
145 -69 74 0 65 17 -13 22 -58 3 -69 8 -98 36 -27 28 -32 40 -32 82 0 40 5 54
30 80 18 19 43 33 66 36 31 5 38 11 43 35 5 28 48 59 81 59 8 0 15 7 15 15 0
54 75 115 140 115 46 0 108 -36 126 -73 14 -29 20 -32 59 -32 37 0 50 -6 77
-32 27 -27 33 -41 33 -78 0 -39 3 -46 28 -56 50 -21 70 -85 43 -138 -20 -38
-55 -51 -136 -51 -44 0 -70 -4 -70 -11 0 -7 28 -10 85 -8 80 4 86 6 117 37 29
28 33 39 33 83 0 45 -4 54 -36 84 -24 22 -38 45 -42 70 -3 20 -13 48 -22 62
-22 32 -74 63 -108 63 -19 0 -37 11 -60 36 -52 61 -125 79 -192 50z"/>
<path d="M280 600 c0 -5 5 -10 10 -10 6 0 10 5 10 10 0 6 -4 10 -10 10 -5 0
-10 -4 -10 -10z"/>
<path d="M320 580 c0 -5 5 -10 10 -10 6 0 10 5 10 10 0 6 -4 10 -10 10 -5 0
-10 -4 -10 -10z"/>
<path d="M550 580 c0 -5 5 -10 10 -10 6 0 10 5 10 10 0 6 -4 10 -10 10 -5 0
-10 -4 -10 -10z"/>
<path d="M350 550 c0 -5 5 -10 10 -10 6 0 10 5 10 10 0 6 -4 10 -10 10 -5 0
-10 -4 -10 -10z"/>
<path d="M550 540 c0 -5 5 -10 10 -10 6 0 10 5 10 10 0 6 -4 10 -10 10 -5 0
-10 -4 -10 -10z"/>
<path d="M180 510 c0 -5 5 -10 10 -10 6 0 10 5 10 10 0 6 -4 10 -10 10 -5 0
-10 -4 -10 -10z"/>
<path d="M220 490 c0 -5 5 -10 10 -10 6 0 10 5 10 10 0 6 -4 10 -10 10 -5 0
-10 -4 -10 -10z"/>
<path d="M250 460 c0 -5 5 -10 10 -10 6 0 10 5 10 10 0 6 -4 10 -10 10 -5 0
-10 -4 -10 -10z"/>
<path d="M680 430 c0 -5 5 -10 10 -10 6 0 10 5 10 10 0 6 -4 10 -10 10 -5 0
-10 -4 -10 -10z"/>
<path d="M381 379 c-36 -63 -10 -113 49 -94 31 10 35 48 9 94 -12 23 -26 41
-29 41 -3 0 -17 -18 -29 -41z m51 -23 c14 -32 4 -56 -22 -56 -11 0 -23 7 -27
16 -7 18 12 64 27 64 6 0 15 -11 22 -24z"/>
<path d="M660 400 c0 -5 5 -10 10 -10 6 0 10 5 10 10 0 6 -4 10 -10 10 -5 0
-10 -4 -10 -10z"/>
<path d="M271 199 c-36 -63 -10 -113 49 -94 31 10 35 48 9 94 -12 23 -26 41
-29 41 -3 0 -17 -18 -29 -41z m51 -23 c14 -32 4 -56 -22 -56 -11 0 -23 7 -27
16 -7 18 12 64 27 64 6 0 15 -11 22 -24z"/>
<path d="M471 159 c-36 -63 -10 -113 49 -94 31 10 35 48 9 94 -12 23 -26 41
-29 41 -3 0 -17 -18 -29 -41z m51 -23 c14 -32 4 -56 -22 -56 -11 0 -23 7 -27
16 -7 18 12 64 27 64 6 0 15 -11 22 -24z"/>
</g>
</svg>
