<?xml version="1.0" standalone="no"?>
<!DOCTYPE svg PUBLIC "-//W3C//DTD SVG 20010904//EN"
 "http://www.w3.org/TR/2001/REC-SVG-20010904/DTD/svg10.dtd">
<svg version="1.0" xmlns="http://www.w3.org/2000/svg"
 width="64.000000pt" height="64.000000pt" viewBox="0 0 64.000000 64.000000"
 preserveAspectRatio="xMidYMid meet">

<g transform="translate(0.000000,64.000000) scale(0.100000,-0.100000)"
fill="#000000" stroke="none">
<path d="M165 626 c-39 -17 -81 -67 -90 -106 -4 -17 -18 -43 -31 -57 -51 -55
-53 -154 -5 -197 28 -26 48 -10 23 18 -43 46 -40 117 7 163 15 16 31 44 35 64
15 81 117 124 190 81 20 -12 38 -17 41 -11 9 14 -1 25 -39 43 -41 19 -90 20
-131 2z"/>
<path d="M393 579 c-35 -10 -48 -23 -38 -39 4 -6 17 -4 35 5 59 31 97 14 154
-69 11 -18 22 -24 28 -18 15 15 -50 102 -88 118 -38 16 -46 16 -91 3z"/>
<path d="M595 440 c-7 -12 2 -30 16 -30 12 0 12 27 0 35 -5 3 -12 1 -16 -5z"/>
<path d="M167 388 c-21 -16 -38 -63 -31 -83 18 -45 104 9 104 65 0 26 -3 30
-28 30 -16 0 -36 -6 -45 -12z m43 -32 c0 -16 -26 -39 -38 -34 -15 5 6 48 23
48 8 0 15 -6 15 -14z"/>
<path d="M619 388 c0 -2 -2 -19 -5 -37 -6 -46 -30 -81 -65 -94 -16 -6 -29 -17
-29 -24 0 -32 70 4 99 50 22 35 29 107 11 107 -5 0 -10 -1 -11 -2z"/>
<path d="M385 325 c-14 -13 -25 -31 -25 -40 0 -28 20 -55 40 -55 24 0 25 8 4
31 -33 37 8 73 51 45 31 -20 33 -58 5 -86 -17 -17 -33 -20 -110 -20 -73 0 -90
-3 -90 -15 0 -12 15 -15 79 -15 91 0 134 12 155 45 30 46 17 98 -31 123 -32
18 -51 15 -78 -13z"/>
<path d="M255 300 c-24 -26 -12 -37 20 -20 29 16 52 2 42 -24 -5 -13 -24 -16
-103 -16 -72 0 -95 -3 -92 -12 7 -21 174 -23 204 -3 29 19 31 55 6 78 -25 23
-55 21 -77 -3z"/>
<path d="M20 225 c0 -8 5 -15 10 -15 6 0 10 7 10 15 0 8 -4 15 -10 15 -5 0
-10 -7 -10 -15z"/>
<path d="M70 224 c0 -9 5 -14 12 -12 18 6 21 28 4 28 -9 0 -16 -7 -16 -16z"/>
<path d="M579 219 c-24 -24 -22 -52 4 -57 25 -5 57 26 57 55 0 30 -32 31 -61
2z m31 -19 c0 -5 -5 -10 -11 -10 -5 0 -7 5 -4 10 3 6 8 10 11 10 2 0 4 -4 4
-10z"/>
<path d="M180 185 c0 -9 9 -15 25 -15 16 0 25 6 25 15 0 9 -9 15 -25 15 -16 0
-25 -6 -25 -15z"/>
<path d="M110 137 c0 -29 32 -60 57 -55 27 5 28 43 1 62 -33 24 -58 21 -58 -7z"/>
<path d="M202 148 c6 -18 28 -21 28 -4 0 9 -7 16 -16 16 -9 0 -14 -5 -12 -12z"/>
<path d="M260 146 c0 -10 14 -16 42 -18 31 -2 44 -8 46 -21 5 -24 -25 -33 -47
-13 -22 20 -31 20 -31 1 0 -26 44 -47 74 -36 14 6 26 15 26 20 0 5 3 16 6 24
10 26 -32 57 -76 57 -28 0 -40 -4 -40 -14z"/>
<path d="M390 144 c0 -17 22 -14 28 4 2 7 -3 12 -12 12 -9 0 -16 -7 -16 -16z"/>
<path d="M442 148 c3 -7 24 -14 49 -16 53 -4 69 -16 69 -52 0 -33 -21 -53 -51
-48 -29 4 -34 21 -14 42 24 24 14 39 -13 21 -28 -21 -30 -70 -3 -85 50 -26
111 12 111 70 0 50 -38 80 -100 80 -37 0 -50 -4 -48 -12z"/>
<path d="M3 94 c-11 -29 23 -81 57 -89 41 -9 54 4 45 45 -5 24 -16 35 -41 46
-43 18 -53 18 -61 -2z m58 -24 c19 -11 27 -40 10 -40 -12 0 -41 29 -41 41 0
12 7 11 31 -1z"/>
</g>
</svg>
